<svg width="102" height="14" viewBox="0 0 102 14" fill="none" xmlns="http://www.w3.org/2000/svg">
<g>
<path d="M6.63773 6.63773H13.2755C13.2755 10.304 10.304 13.2755 6.63773 13.2755C2.97149 13.2755 0 10.304 0 6.63773C0 2.97149 2.97149 0 6.63773 0V6.63773Z" fill="#EB2F96"/>
<path d="M10.2634 6.02485C11.9271 6.02485 13.2758 4.67614 13.2758 3.01242C13.2758 1.34871 11.9271 0 10.2634 0C8.59968 0 7.25098 1.34871 7.25098 3.01242C7.25098 4.67614 8.59968 6.02485 10.2634 6.02485Z" fill="#1890FF"/>
<path d="M23.4532 6.63773H30.0909C30.0909 10.304 27.1194 13.2755 23.4532 13.2755C21.7639 13.2755 20.2217 12.6438 19.049 11.6039C19.0092 11.5685 18.9705 11.5331 18.9318 11.4965C18.4848 11.0806 18.0954 10.6038 17.7768 10.0794C17.7491 10.034 17.7215 9.98757 17.6949 9.94111C17.1351 8.96868 16.8154 7.84027 16.8154 6.63662C16.8154 2.97149 19.7869 0 23.4532 0V6.63773Z" fill="#A0D911"/>
<path d="M37.835 0L31.1973 6.63773V13.2755L37.835 6.63773L44.4727 13.2755V6.63773L37.835 0Z" fill="#FADB14"/>
<path d="M55.5357 0H48.898H45.5791V6.63773H48.898V13.2755H55.5357V6.63773H58.8546V0H55.5357Z" fill="#13C2C2"/>
<path d="M69.9175 0V3.31886H63.2798V0H59.9609V6.63773V13.2755H63.2798V9.95659H69.9175V13.2755H73.2364V6.63773V0H69.9175Z" fill="#722ED1"/>
<path d="M87.6182 3.31886V0H80.9805H74.3428V6.63773V13.2755H80.9805H87.6182V9.95659H80.9805V8.29716H87.6182V4.9783H80.9805V3.31886H87.6182Z" fill="#2F54EB"/>
<path d="M98.6812 6.63773C100.514 6.63773 102 5.15198 102 3.31886C102 1.48575 100.514 0 98.6812 0H88.7246V13.2755H102L95.3623 6.63773H98.6812Z" fill="#FA8C16"/>
</g>
</svg>
